<mxfile host="app.diagrams.net" modified="2024-03-30T04:20:15.138Z" agent="Mozilla/5.0 (Windows NT 10.0; Win64; x64) AppleWebKit/537.36 (KHTML, like Gecko) Chrome/123.0.0.0 Safari/537.36" etag="-H_GVChq36emirLs1n62" version="24.2.1" type="github">
  <diagram name="Page-1" id="74e2e168-ea6b-b213-b513-2b3c1d86103e">
    <mxGraphModel dx="1195" dy="615" grid="1" gridSize="10" guides="1" tooltips="1" connect="1" arrows="1" fold="1" page="1" pageScale="1" pageWidth="1100" pageHeight="850" background="none" math="0" shadow="0">
      <root>
        <mxCell id="0" />
        <mxCell id="1" parent="0" />
        <mxCell id="77e6c97f196da883-1" value="Anacle and Boomi integration" style="swimlane;html=1;childLayout=stackLayout;startSize=20;rounded=0;shadow=0;labelBackgroundColor=none;strokeWidth=1;fontFamily=Verdana;fontSize=8;align=center;" parent="1" vertex="1">
          <mxGeometry x="70" y="40" width="1050" height="380" as="geometry" />
        </mxCell>
        <mxCell id="77e6c97f196da883-2" value="WebAPI" style="swimlane;html=1;startSize=20;" parent="77e6c97f196da883-1" vertex="1">
          <mxGeometry y="20" width="270" height="360" as="geometry" />
        </mxCell>
        <mxCell id="77e6c97f196da883-8" value="GetActivePlans" style="rounded=1;whiteSpace=wrap;html=1;shadow=0;labelBackgroundColor=none;strokeWidth=1;fontFamily=Verdana;fontSize=8;align=center;" parent="77e6c97f196da883-2" vertex="1">
          <mxGeometry x="80" y="40" width="100" height="60" as="geometry" />
        </mxCell>
        <mxCell id="Q9Fks28OvJl2Ohzn9PV5-7" value="Submit SignUp" style="rounded=1;whiteSpace=wrap;html=1;" vertex="1" parent="77e6c97f196da883-2">
          <mxGeometry x="80" y="150" width="100" height="50" as="geometry" />
        </mxCell>
        <mxCell id="Q9Fks28OvJl2Ohzn9PV5-26" value="And More" style="rounded=1;whiteSpace=wrap;html=1;" vertex="1" parent="77e6c97f196da883-2">
          <mxGeometry x="80" y="260" width="120" height="60" as="geometry" />
        </mxCell>
        <mxCell id="77e6c97f196da883-26" style="edgeStyle=orthogonalEdgeStyle;rounded=1;html=1;labelBackgroundColor=none;startArrow=none;startFill=0;startSize=5;endArrow=classicThin;endFill=1;endSize=5;jettySize=auto;orthogonalLoop=1;strokeWidth=1;fontFamily=Verdana;fontSize=8" parent="77e6c97f196da883-1" source="77e6c97f196da883-8" target="77e6c97f196da883-11" edge="1">
          <mxGeometry relative="1" as="geometry">
            <Array as="points">
              <mxPoint x="310" y="80" />
              <mxPoint x="310" y="80" />
            </Array>
          </mxGeometry>
        </mxCell>
        <mxCell id="Q9Fks28OvJl2Ohzn9PV5-1" value="1. GET: /account_plan/v2/" style="edgeLabel;html=1;align=center;verticalAlign=middle;resizable=0;points=[];" vertex="1" connectable="0" parent="77e6c97f196da883-26">
          <mxGeometry x="-0.5714" y="2" relative="1" as="geometry">
            <mxPoint x="48" y="2" as="offset" />
          </mxGeometry>
        </mxCell>
        <mxCell id="77e6c97f196da883-3" value="Boomi" style="swimlane;html=1;startSize=20;strokeColor=default;rounded=0;shadow=0;" parent="77e6c97f196da883-1" vertex="1">
          <mxGeometry x="270" y="20" width="280" height="360" as="geometry" />
        </mxCell>
        <mxCell id="77e6c97f196da883-11" value="Proxy" style="rounded=1;whiteSpace=wrap;html=1;shadow=0;labelBackgroundColor=none;strokeWidth=1;fontFamily=Verdana;fontSize=8;align=center;" parent="77e6c97f196da883-3" vertex="1">
          <mxGeometry x="85" y="40" width="100" height="60" as="geometry" />
        </mxCell>
        <mxCell id="77e6c97f196da883-27" style="edgeStyle=orthogonalEdgeStyle;rounded=1;html=1;labelBackgroundColor=none;startArrow=none;startFill=0;startSize=5;endArrow=classicThin;endFill=1;endSize=5;jettySize=auto;orthogonalLoop=1;strokeWidth=1;fontFamily=Verdana;fontSize=8;exitX=1;exitY=0.5;exitDx=0;exitDy=0;entryX=-0.042;entryY=0.077;entryDx=0;entryDy=0;entryPerimeter=0;" parent="77e6c97f196da883-3" target="77e6c97f196da883-9" edge="1">
          <mxGeometry relative="1" as="geometry">
            <Array as="points" />
            <mxPoint x="187.5" y="60" as="sourcePoint" />
            <mxPoint x="612.5" y="60" as="targetPoint" />
          </mxGeometry>
        </mxCell>
        <mxCell id="Q9Fks28OvJl2Ohzn9PV5-11" value="Approval/Cancellation" style="rounded=1;whiteSpace=wrap;html=1;shadow=0;labelBackgroundColor=none;strokeWidth=1;fontFamily=Verdana;fontSize=8;align=center;" vertex="1" parent="77e6c97f196da883-3">
          <mxGeometry x="85" y="140" width="100" height="100" as="geometry" />
        </mxCell>
        <mxCell id="77e6c97f196da883-4" value="Boomi API (Function app)" style="swimlane;html=1;startSize=20;strokeColor=default;swimlaneLine=1;glass=0;strokeWidth=1;perimeterSpacing=1;" parent="77e6c97f196da883-1" vertex="1">
          <mxGeometry x="550" y="20" width="260" height="360" as="geometry" />
        </mxCell>
        <mxCell id="Q9Fks28OvJl2Ohzn9PV5-15" value="Sync with WebApi db" style="rounded=1;whiteSpace=wrap;html=1;" vertex="1" parent="77e6c97f196da883-4">
          <mxGeometry x="70" y="190" width="120" height="60" as="geometry" />
        </mxCell>
        <mxCell id="Q9Fks28OvJl2Ohzn9PV5-25" value="" style="endArrow=classic;html=1;rounded=0;entryX=1.067;entryY=0.6;entryDx=0;entryDy=0;entryPerimeter=0;edgeStyle=orthogonalEdgeStyle;" edge="1" parent="77e6c97f196da883-4" target="Q9Fks28OvJl2Ohzn9PV5-16">
          <mxGeometry width="50" height="50" relative="1" as="geometry">
            <mxPoint x="100" y="250" as="sourcePoint" />
            <mxPoint x="150" y="200" as="targetPoint" />
            <Array as="points">
              <mxPoint x="130" y="250" />
              <mxPoint x="130" y="450" />
            </Array>
          </mxGeometry>
        </mxCell>
        <mxCell id="77e6c97f196da883-5" value="Anacle" style="swimlane;html=1;startSize=20;strokeColor=default;" parent="77e6c97f196da883-1" vertex="1">
          <mxGeometry x="810" y="20" width="240" height="360" as="geometry" />
        </mxCell>
        <mxCell id="77e6c97f196da883-9" value="MyBills Service&lt;div&gt;(Third party service)&lt;/div&gt;" style="rounded=1;whiteSpace=wrap;html=1;shadow=0;labelBackgroundColor=none;strokeWidth=1;fontFamily=Verdana;fontSize=8;align=center;" parent="77e6c97f196da883-5" vertex="1">
          <mxGeometry x="80" y="40" width="100" height="270" as="geometry" />
        </mxCell>
        <mxCell id="Q9Fks28OvJl2Ohzn9PV5-5" value="" style="endArrow=classic;html=1;rounded=0;dashed=1;exitX=-0.05;exitY=0.164;exitDx=0;exitDy=0;exitPerimeter=0;" edge="1" parent="77e6c97f196da883-1" source="77e6c97f196da883-9">
          <mxGeometry width="50" height="50" relative="1" as="geometry">
            <mxPoint x="490" y="240" as="sourcePoint" />
            <mxPoint x="460" y="105" as="targetPoint" />
          </mxGeometry>
        </mxCell>
        <mxCell id="Q9Fks28OvJl2Ohzn9PV5-6" value="" style="endArrow=classic;html=1;rounded=0;dashed=1;exitX=0;exitY=0.75;exitDx=0;exitDy=0;entryX=1;entryY=0.75;entryDx=0;entryDy=0;" edge="1" parent="77e6c97f196da883-1" source="77e6c97f196da883-11" target="77e6c97f196da883-8">
          <mxGeometry width="50" height="50" relative="1" as="geometry">
            <mxPoint x="890" y="115" as="sourcePoint" />
            <mxPoint x="470" y="115" as="targetPoint" />
          </mxGeometry>
        </mxCell>
        <mxCell id="Q9Fks28OvJl2Ohzn9PV5-10" value="" style="endArrow=classic;html=1;rounded=0;exitX=1;exitY=0.25;exitDx=0;exitDy=0;" edge="1" parent="77e6c97f196da883-1" source="Q9Fks28OvJl2Ohzn9PV5-7">
          <mxGeometry width="50" height="50" relative="1" as="geometry">
            <mxPoint x="490" y="240" as="sourcePoint" />
            <mxPoint x="350" y="183" as="targetPoint" />
          </mxGeometry>
        </mxCell>
        <mxCell id="Q9Fks28OvJl2Ohzn9PV5-14" value="" style="endArrow=classic;html=1;rounded=0;dashed=1;entryX=0.983;entryY=0.333;entryDx=0;entryDy=0;entryPerimeter=0;" edge="1" parent="77e6c97f196da883-1" target="Q9Fks28OvJl2Ohzn9PV5-11">
          <mxGeometry width="50" height="50" relative="1" as="geometry">
            <mxPoint x="890" y="193" as="sourcePoint" />
            <mxPoint x="460" y="200" as="targetPoint" />
          </mxGeometry>
        </mxCell>
        <mxCell id="Q9Fks28OvJl2Ohzn9PV5-12" value="" style="endArrow=classic;html=1;rounded=0;entryX=-0.017;entryY=0.438;entryDx=0;entryDy=0;entryPerimeter=0;exitX=1.025;exitY=0.192;exitDx=0;exitDy=0;exitPerimeter=0;" edge="1" parent="77e6c97f196da883-1" source="Q9Fks28OvJl2Ohzn9PV5-11" target="77e6c97f196da883-9">
          <mxGeometry width="50" height="50" relative="1" as="geometry">
            <mxPoint x="460" y="180" as="sourcePoint" />
            <mxPoint x="540" y="190" as="targetPoint" />
          </mxGeometry>
        </mxCell>
        <mxCell id="Q9Fks28OvJl2Ohzn9PV5-23" value="" style="endArrow=classic;html=1;rounded=0;entryX=0;entryY=0.25;entryDx=0;entryDy=0;exitX=1.025;exitY=0.65;exitDx=0;exitDy=0;exitPerimeter=0;" edge="1" parent="77e6c97f196da883-1" source="Q9Fks28OvJl2Ohzn9PV5-11" target="Q9Fks28OvJl2Ohzn9PV5-15">
          <mxGeometry width="50" height="50" relative="1" as="geometry">
            <mxPoint x="490" y="240" as="sourcePoint" />
            <mxPoint x="540" y="190" as="targetPoint" />
          </mxGeometry>
        </mxCell>
        <mxCell id="Q9Fks28OvJl2Ohzn9PV5-24" value="queue to sync with db" style="edgeLabel;html=1;align=center;verticalAlign=middle;resizable=0;points=[];" vertex="1" connectable="0" parent="Q9Fks28OvJl2Ohzn9PV5-23">
          <mxGeometry x="-0.3436" y="-1" relative="1" as="geometry">
            <mxPoint x="29" y="-2" as="offset" />
          </mxGeometry>
        </mxCell>
        <mxCell id="Q9Fks28OvJl2Ohzn9PV5-16" value="Web API db" style="shape=cylinder3;whiteSpace=wrap;html=1;boundedLbl=1;backgroundOutline=1;size=15;" vertex="1" parent="1">
          <mxGeometry x="160" y="450" width="75" height="100" as="geometry" />
        </mxCell>
        <mxCell id="Q9Fks28OvJl2Ohzn9PV5-21" value="" style="endArrow=classic;html=1;rounded=0;exitX=0;exitY=0.75;exitDx=0;exitDy=0;entryX=0.022;entryY=0.575;entryDx=0;entryDy=0;entryPerimeter=0;edgeStyle=orthogonalEdgeStyle;" edge="1" parent="1" source="77e6c97f196da883-8" target="Q9Fks28OvJl2Ohzn9PV5-16">
          <mxGeometry width="50" height="50" relative="1" as="geometry">
            <mxPoint x="560" y="280" as="sourcePoint" />
            <mxPoint x="610" y="230" as="targetPoint" />
            <Array as="points">
              <mxPoint x="120" y="145" />
              <mxPoint x="120" y="508" />
            </Array>
          </mxGeometry>
        </mxCell>
        <mxCell id="Q9Fks28OvJl2Ohzn9PV5-22" value="2. Sync with DB" style="edgeLabel;html=1;align=center;verticalAlign=middle;resizable=0;points=[];" vertex="1" connectable="0" parent="Q9Fks28OvJl2Ohzn9PV5-21">
          <mxGeometry x="-0.6967" y="4" relative="1" as="geometry">
            <mxPoint as="offset" />
          </mxGeometry>
        </mxCell>
      </root>
    </mxGraphModel>
  </diagram>
</mxfile>
